<svg width="24" height="24" viewBox="0 0 24 24" fill="none" xmlns="http://www.w3.org/2000/svg">
<path d="M16.7071 2.5C19.3502 2.5 21.5 4.65013 21.5 7.29293V16.7071C21.5 19.3502 19.3502 21.5 16.7071 21.5H7.29293C4.65013 21.5 2.5 19.3502 2.5 16.7071V7.29293C2.5 4.65013 4.65013 2.5 7.29293 2.5H16.7071ZM16.7071 4.56779H7.29293C5.7903 4.56779 4.56779 5.7903 4.56779 7.29293V16.7071C4.56779 18.2097 5.7903 19.4326 7.29293 19.4326H16.7071C18.2097 19.4326 19.4326 18.21 19.4326 16.7071V7.29293C19.4326 5.7903 18.21 4.56779 16.7071 4.56779ZM12 7.10678C14.6984 7.10678 16.8936 9.30195 16.8936 12C16.8936 14.698 14.698 16.8936 12 16.8936C9.30195 16.8936 7.10678 14.6984 7.10678 12C7.10678 9.30195 9.30195 7.10678 12 7.10678ZM12 9.17456C10.4425 9.17456 9.17421 10.4421 9.17421 11.9996C9.17421 13.5579 10.4425 14.8258 12 14.8258C13.5582 14.8258 14.8254 13.5579 14.8254 11.9996C14.8254 10.4425 13.5579 9.17456 12 9.17456ZM17.0509 5.80297C17.6892 5.80297 18.2086 6.32238 18.2086 6.96073C18.2086 7.59909 17.6892 8.1185 17.0509 8.1185C16.4122 8.1185 15.8928 7.59909 15.8928 6.96073C15.8928 6.32238 16.4122 5.80297 17.0509 5.80297Z" fill="#5E626B"/>
</svg>
